<?xml version="1.0" standalone="no"?>
<!DOCTYPE svg PUBLIC "-//W3C//DTD SVG 20010904//EN"
 "http://www.w3.org/TR/2001/REC-SVG-20010904/DTD/svg10.dtd">
<svg version="1.0" xmlns="http://www.w3.org/2000/svg"
 width="500.000000pt" height="500.000000pt" viewBox="0 0 500.000000 500.000000"
 preserveAspectRatio="xMidYMid meet">
<metadata>
Created by potrace 1.16, written by Peter Selinger 2001-2019
</metadata>
<g transform="translate(0.000000,500.000000) scale(0.100000,-0.100000)"
fill="#000000" stroke="none">
<path d="M2220 4829 c-215 -24 -527 -114 -720 -207 -251 -121 -447 -259 -650
-462 -150 -149 -184 -188 -281 -329 -188 -273 -320 -590 -380 -916 -30 -161
-37 -534 -14 -715 49 -388 207 -779 441 -1095 71 -97 243 -285 330 -361 79
-69 270 -213 293 -222 9 -3 34 -18 56 -32 59 -40 296 -153 405 -193 368 -136
824 -173 1226 -101 454 82 887 310 1223 644 340 337 571 773 655 1234 54 295
43 687 -28 981 -20 82 -87 284 -124 371 -65 156 -209 399 -302 509 -14 17 -41
51 -60 75 -46 58 -224 236 -278 280 -24 19 -54 43 -65 54 -32 27 -195 139
-247 170 -100 59 -331 167 -430 199 -289 97 -477 127 -775 126 -110 -1 -234
-5 -275 -10z m590 -63 c210 -32 334 -65 522 -137 523 -202 957 -603 1217
-1125 82 -164 117 -260 166 -455 156 -622 41 -1286 -314 -1814 -60 -89 -131
-184 -165 -219 -11 -12 -53 -56 -92 -97 -241 -254 -545 -452 -874 -569 -508
-181 -1032 -183 -1538 -4 -238 84 -493 229 -693 393 -84 70 -272 264 -342 354
-249 323 -405 690 -462 1091 -79 549 41 1088 350 1568 98 153 335 418 445 500
19 14 44 34 55 45 32 30 173 126 253 172 157 91 383 192 497 222 161 42 337
75 495 92 78 9 382 -2 480 -17z"/>
<path d="M2205 4370 c-468 -75 -876 -310 -1174 -675 -53 -65 -110 -144 -138
-190 -123 -203 -201 -397 -249 -620 -35 -163 -44 -461 -19 -640 75 -544 383
-1031 840 -1331 470 -308 1078 -387 1616 -211 200 66 349 140 514 257 428 302
715 781 780 1303 44 352 -14 717 -166 1045 -107 232 -316 501 -507 652 -42 34
-84 67 -93 75 -30 23 -140 95 -147 95 -4 0 -23 10 -42 23 -83 54 -283 136
-437 177 -224 61 -546 78 -778 40z m500 -15 c440 -52 832 -246 1140 -566 513
-533 662 -1337 373 -2011 -62 -143 -136 -278 -158 -286 -8 -3 -30 -22 -48 -41
l-33 -36 6 30 c3 17 17 54 31 84 13 30 22 57 19 60 -13 13 -90 10 -112 -4 -13
-9 -36 -41 -52 -73 -29 -58 -66 -100 -77 -89 -4 3 4 31 17 61 19 47 21 59 10
82 -9 21 -17 25 -36 21 -14 -2 -25 0 -25 4 0 27 -24 1 -51 -56 -37 -77 -81
-130 -87 -103 -2 9 4 30 12 47 9 16 16 46 16 65 0 33 -3 36 -41 46 -23 6 -42
10 -44 8 -2 -2 -17 -33 -34 -69 -33 -70 -81 -127 -81 -95 0 9 11 43 25 76 34
82 34 85 -24 88 -45 2 -52 -1 -79 -32 -17 -19 -34 -45 -37 -58 -17 -52 -69
-97 -112 -98 -87 -1 -82 168 6 243 35 29 60 34 79 15 18 -18 14 -66 -8 -88
-24 -24 -50 -16 -50 16 0 15 -6 24 -15 24 -26 0 -19 -57 10 -76 48 -32 105 13
105 83 0 61 -28 87 -84 80 -77 -10 -136 -103 -136 -216 0 -45 4 -57 29 -82 37
-36 84 -39 132 -6 33 22 35 22 52 4 12 -12 25 -16 40 -11 12 4 27 6 32 6 6 -1
28 -4 51 -7 l40 -5 23 56 c24 56 65 114 82 114 14 0 11 -38 -7 -71 -8 -17 -14
-45 -12 -62 3 -30 5 -32 46 -33 l43 -1 28 62 c29 64 69 111 83 97 4 -4 -2 -35
-14 -69 -19 -51 -20 -63 -9 -77 16 -20 41 -20 66 -2 16 12 22 12 42 -2 19 -12
29 -13 49 -4 19 9 29 9 44 0 11 -7 20 -15 20 -18 0 -8 -69 -89 -140 -164 -281
-297 -670 -500 -1073 -563 -150 -23 -425 -23 -562 0 -402 69 -752 246 -1022
515 -49 49 -108 112 -129 139 -21 26 -41 50 -44 53 -3 3 -12 14 -20 24 -14 18
-14 19 7 8 59 -32 114 -2 162 88 32 59 34 61 64 54 41 -8 41 -8 28 -32 -6 -12
-11 -39 -11 -61 0 -35 3 -41 25 -47 14 -3 32 -1 39 5 11 9 19 9 34 0 17 -10
25 -10 46 4 24 16 28 16 51 1 l24 -16 -39 -37 c-32 -30 -40 -45 -40 -74 0 -27
5 -37 20 -42 33 -11 58 13 81 76 22 60 56 93 87 82 7 -3 22 18 38 54 34 76 94
141 94 101 0 -7 -10 -36 -21 -64 -32 -76 -6 -115 52 -82 24 14 30 14 40 2 15
-18 39 -18 67 2 12 8 22 11 22 5 0 -15 35 -22 62 -12 15 6 31 5 42 -1 14 -8
25 -5 47 11 16 12 29 17 29 12 0 -18 37 -31 62 -22 14 5 32 4 45 -2 17 -7 28
-6 48 7 14 9 25 12 25 7 0 -5 9 -13 21 -16 20 -7 19 -9 -14 -36 -40 -33 -58
-74 -46 -107 19 -50 71 -14 105 74 11 29 28 51 50 65 35 21 84 74 84 90 0 19
-30 8 -46 -16 -9 -14 -25 -30 -35 -36 -15 -8 -12 5 16 73 39 92 40 98 22 98
-8 0 -30 -36 -49 -79 -36 -81 -72 -117 -84 -86 -4 9 5 43 20 76 28 64 32 89
16 89 -6 0 -25 -33 -44 -73 -35 -75 -76 -126 -76 -93 0 9 11 43 25 76 34 82
33 85 -22 88 -55 2 -81 -17 -119 -88 -32 -60 -48 -80 -67 -80 -13 0 -12 9 9
55 26 56 29 105 7 113 -9 2 -13 -7 -13 -25 0 -39 -44 -129 -69 -143 -34 -18
-37 13 -7 81 29 67 32 89 13 89 -7 0 -23 -28 -37 -62 -24 -60 -63 -118 -80
-118 -20 0 -16 32 11 96 33 78 34 84 16 84 -8 0 -28 -31 -46 -69 -49 -105
-117 -158 -72 -56 32 73 26 107 -21 116 -16 4 -15 9 7 58 18 39 23 57 15 65
-14 14 -19 6 -76 -126 -46 -104 -86 -169 -98 -157 -3 3 7 39 24 79 16 40 30
76 30 80 0 13 -94 10 -116 -5 -11 -7 -36 -43 -54 -80 -18 -36 -41 -70 -51 -76
-26 -14 -25 -1 11 83 34 79 36 88 17 88 -8 0 -26 -29 -42 -65 -28 -68 -60
-115 -76 -115 -20 0 -7 53 41 160 54 122 57 130 36 130 -7 0 -27 -31 -44 -69
-17 -38 -36 -72 -42 -76 -6 -4 -23 -4 -39 0 l-29 6 24 59 c13 33 24 64 24 69
0 12 -80 31 -133 31 -59 0 -90 -31 -85 -86 2 -33 8 -41 35 -54 23 -11 31 -20
27 -32 -6 -21 8 -23 36 -6 10 7 22 9 26 6 10 -11 -49 -110 -79 -131 -54 -41
-110 12 -72 69 19 30 60 30 60 0 0 -11 6 -21 13 -24 18 -6 26 26 14 54 -9 19
-19 24 -50 24 -52 0 -76 -27 -77 -86 0 -24 -1 -44 -2 -44 -7 0 -141 234 -170
297 -55 119 -120 328 -144 464 -29 163 -32 473 -5 619 71 392 237 720 500 990
229 235 460 381 754 479 275 91 522 118 797 86z"/>
<path d="M2481 4253 c-28 -97 -81 -356 -89 -425 -4 -43 -5 -101 -1 -130 4 -29
10 -78 14 -108 l8 -55 -45 65 c-40 59 -297 300 -320 300 -4 0 -8 -6 -8 -13 0
-19 63 -165 136 -316 36 -73 63 -135 61 -137 -2 -2 -51 1 -108 8 -76 8 -125
21 -182 45 -77 32 -107 40 -107 27 0 -13 116 -149 200 -234 47 -48 105 -96
129 -108 57 -27 33 -39 -37 -19 -124 37 -238 27 -545 -47 -181 -44 -183 -46
-65 -77 312 -81 498 -100 616 -61 34 11 62 18 62 17 0 -2 -25 -18 -55 -35 -30
-17 -55 -37 -55 -45 0 -7 -8 -19 -17 -26 -28 -23 -233 -261 -233 -270 0 -17
27 -9 131 37 169 75 249 94 234 57 -4 -10 -17 -45 -28 -78 -11 -33 -42 -109
-67 -170 -61 -142 -75 -183 -67 -191 9 -9 131 92 237 196 56 55 95 103 110
135 31 68 36 43 11 -57 -26 -102 -26 -146 0 -289 26 -144 79 -371 89 -383 14
-14 26 23 63 184 64 276 72 379 42 490 -8 30 -15 61 -15 68 0 23 16 12 33 -24
23 -47 99 -127 225 -236 97 -83 122 -100 122 -79 0 12 -76 195 -106 252 -13
26 -19 49 -14 51 5 2 -4 34 -20 72 -16 38 -28 72 -25 74 13 13 134 -22 247
-72 71 -31 130 -56 133 -56 42 0 -222 298 -320 361 -33 21 -57 39 -54 39 3 0
32 -10 65 -22 88 -32 240 -30 404 5 210 46 305 72 303 82 -2 15 -53 30 -240
72 -145 32 -185 37 -293 37 -116 0 -131 -2 -212 -32 -89 -33 -118 -39 -118
-23 0 11 35 21 73 21 15 0 27 4 27 9 0 5 19 19 43 31 50 26 138 110 248 236
73 85 91 114 71 114 -4 0 -46 -15 -92 -34 -62 -25 -108 -36 -170 -40 -47 -4
-102 -11 -122 -15 -44 -10 -46 -16 33 134 76 145 151 323 138 331 -11 6 -170
-130 -261 -223 -31 -32 -68 -78 -82 -103 -23 -41 -26 -43 -26 -18 0 15 7 57
16 95 20 85 15 162 -26 354 -42 201 -64 282 -77 286 -7 3 -17 -13 -22 -34z
m74 -306 c15 -75 25 -159 24 -205 -1 -90 -4 -82 -44 91 -14 64 -31 117 -35
117 -10 0 -19 -29 -51 -167 -11 -51 -23 -93 -26 -93 -19 0 28 310 68 454 l12
41 13 -55 c7 -30 25 -112 39 -183z m-26 -216 c26 -131 26 -145 -3 -222 -20
-52 -26 -60 -32 -44 -4 11 -15 42 -26 68 -10 26 -18 60 -18 75 0 46 43 244 51
235 4 -4 17 -55 28 -112z m-305 -26 c43 -38 91 -88 106 -110 26 -38 63 -115
56 -115 -2 0 -22 32 -45 70 -44 74 -61 86 -61 45 0 -14 -3 -25 -6 -25 -14 0
-99 86 -110 110 -7 14 -21 47 -33 74 -25 57 -28 59 93 -49z m637 22 c-17 -37
-46 -81 -68 -101 -42 -39 -53 -43 -53 -21 0 29 -16 14 -58 -54 -40 -64 -72
-103 -72 -86 0 4 14 35 30 70 23 49 53 85 136 164 59 56 108 100 110 98 3 -2
-9 -34 -25 -70z m204 -309 c-157 -175 -249 -247 -301 -234 -13 4 -24 10 -24
14 0 4 38 30 85 57 79 45 101 68 74 77 -8 3 176 118 190 118 3 0 -8 -15 -24
-32z m-882 -318 c53 -18 97 -36 97 -39 0 -4 -44 -22 -97 -40 -145 -50 -208
-51 -426 -7 -98 20 -180 36 -182 36 -3 0 -5 4 -5 8 0 8 143 42 295 71 96 19
211 8 318 -29z m989 21 c62 -11 156 -30 208 -42 l95 -23 -55 -13 c-329 -77
-420 -81 -578 -27 -59 20 -108 37 -110 39 -5 5 173 65 218 74 70 14 100 12
222 -8z m-644 -488 l20 -61 -23 -104 c-12 -56 -25 -96 -29 -88 -3 8 -14 57
-25 108 -19 93 -19 94 2 158 12 35 24 61 28 56 3 -4 16 -35 27 -69z m-244 -56
l-7 -77 -71 -63 c-85 -76 -98 -85 -89 -60 27 76 108 229 134 254 17 16 33 28
35 26 2 -2 1 -38 -2 -80z m548 -96 c33 -68 58 -125 56 -126 -2 -2 -36 26 -76
63 l-73 67 -3 84 -3 84 20 -24 c11 -13 47 -80 79 -148z m-365 -103 c13 -60 29
-108 33 -108 10 0 23 43 50 165 l17 80 8 -48 c4 -27 5 -77 1 -110 -7 -66 -46
-265 -67 -338 l-12 -44 -19 75 c-49 203 -70 382 -51 450 6 22 8 23 11 5 2 -11
15 -68 29 -127z"/>
<path d="M1870 2266 c20 -25 21 -46 4 -46 -9 0 -12 -4 -9 -10 3 -5 -1 -10 -10
-10 -9 0 -13 -4 -10 -10 3 -5 -1 -10 -9 -10 -36 0 -19 -24 76 -106 244 -213
466 -351 585 -364 61 -6 65 -5 170 48 96 48 149 83 303 199 25 19 88 72 142
118 l96 85 -41 42 -42 43 -50 -46 c-142 -129 -401 -319 -436 -319 -5 0 -14
-10 -19 -22 -5 -13 -9 -18 -9 -11 -1 17 -58 -4 -65 -24 -5 -12 -3 -13 6 -6 7
5 22 13 32 17 19 7 19 6 1 -14 -10 -11 -31 -27 -48 -35 -28 -14 -31 -13 -85
25 -30 22 -51 40 -46 40 5 0 -15 16 -43 35 -29 19 -55 35 -59 35 -19 0 -288
214 -388 309 -33 31 -54 48 -46 37z"/>
<path d="M2604 1668 c-10 -24 -34 -62 -51 -85 -44 -57 -42 -66 7 -58 l41 7
-28 -56 c-19 -38 -33 -56 -46 -56 -40 0 -8 -25 36 -28 37 -2 47 0 47 12 0 9
-7 16 -15 16 -12 0 -10 10 10 50 14 28 30 50 36 50 6 0 9 8 7 18 -3 9 6 38 19
64 13 26 23 54 23 63 0 31 -21 13 -50 -45 -17 -35 -37 -60 -46 -60 -13 0 -12
4 4 28 20 28 52 97 52 113 0 25 -29 4 -46 -33z"/>
<path d="M2771 1684 c-22 -28 -28 -74 -10 -74 5 0 15 13 20 29 6 16 17 32 25
35 25 10 28 -24 6 -68 -26 -55 -119 -167 -143 -173 -11 -3 -19 -11 -19 -18 0
-17 127 -32 149 -18 21 13 27 63 8 63 -8 0 -17 -9 -20 -20 -4 -15 -14 -20 -36
-20 l-32 0 52 68 c80 103 108 179 77 210 -20 20 -55 13 -77 -14z"/>
<path d="M2942 1685 c-60 -50 -115 -231 -82 -270 7 -8 26 -15 43 -15 57 0 125
104 143 220 13 80 -44 116 -104 65z m68 -20 c34 -42 -57 -235 -111 -235 -15 0
-19 7 -19 35 0 48 37 140 72 181 34 38 40 40 58 19z"/>
</g>
</svg>
